<svg width="34" height="29" viewBox="0 0 34 29" fill="none" xmlns="http://www.w3.org/2000/svg">
<path d="M27.9076 18.3006L17.2922 0.294705C17.2408 0.205795 17.1664 0.131733 17.0764 0.0799932C16.9865 0.0282532 16.8842 0.00066469 16.7798 1.18614e-05C16.6755 -0.000640967 16.5729 0.0256647 16.4823 0.0762746C16.3916 0.126885 16.3163 0.200009 16.2637 0.288269L13.0845 5.68359C12.9804 5.8602 12.9256 6.06054 12.9256 6.26448C12.9256 6.46841 12.9804 6.66875 13.0845 6.84536L20.0064 18.5918C20.1107 18.7686 20.2606 18.9154 20.4412 19.0174C20.6217 19.1193 20.8265 19.1729 21.035 19.1727H27.3934C27.4975 19.1724 27.5997 19.1454 27.6897 19.0943C27.7798 19.0432 27.8546 18.9698 27.9067 18.8815C27.9587 18.7932 27.9862 18.6931 27.9864 18.5912C27.9865 18.4892 27.9594 18.389 27.9076 18.3006Z" fill="#363FF9"/>
<path d="M0.0818558 27.7111L10.6973 9.70524C10.7493 9.61704 10.8242 9.5438 10.9143 9.49289C11.0045 9.44198 11.1067 9.41517 11.2107 9.41517C11.3147 9.41517 11.417 9.44198 11.5071 9.49289C11.5972 9.5438 11.672 9.61704 11.7241 9.70524L14.905 15.0957C15.0091 15.2726 15.0639 15.4732 15.0639 15.6774C15.0639 15.8816 15.0091 16.0822 14.905 16.2591L7.98303 28.0056C7.87921 28.1823 7.7296 28.3291 7.54929 28.4311C7.36899 28.5331 7.16437 28.5867 6.95615 28.5865H0.596115C0.491344 28.587 0.388308 28.5603 0.297479 28.5092C0.20665 28.458 0.131279 28.3842 0.0790278 28.2953C0.0267766 28.2063 -0.000491906 28.1054 6.71746e-06 28.0028C0.000505341 27.9002 0.0287425 27.7996 0.0818558 27.7111Z" fill="#363FF9"/>
<path d="M11.7226 28.5826H32.9534C33.0576 28.5825 33.1599 28.5556 33.25 28.5045C33.3402 28.4534 33.4149 28.3799 33.4669 28.2915C33.5189 28.2031 33.5462 28.1029 33.546 28.0009C33.5459 27.8989 33.5183 27.7987 33.4661 27.7105L30.2901 22.3168C30.1859 22.14 30.036 21.9932 29.8554 21.8912C29.6749 21.7893 29.4701 21.7357 29.2616 21.7359H15.4177C15.2093 21.7357 15.0045 21.7893 14.8239 21.8912C14.6434 21.9932 14.4934 22.14 14.3892 22.3168L11.21 27.7105C11.1578 27.7987 11.1302 27.8989 11.1301 28.0009C11.1299 28.1029 11.1572 28.2031 11.2091 28.2915C11.2611 28.3799 11.3359 28.4534 11.4261 28.5045C11.5162 28.5556 11.6185 28.5825 11.7226 28.5826Z" fill="#363FF9"/>
</svg>
